<svg width="26" height="26" viewBox="0 0 26 26" fill="none" xmlns="http://www.w3.org/2000/svg">
<path d="M17.6375 8.36251C17.5213 8.24535 17.3831 8.15235 17.2308 8.08889C17.0784 8.02543 16.9151 7.99276 16.75 7.99276C16.585 7.99276 16.4216 8.02543 16.2693 8.08889C16.117 8.15235 15.9787 8.24535 15.8625 8.36251L13 11.2375L10.1375 8.36251C9.90216 8.12713 9.58291 7.99489 9.25004 7.99489C8.91716 7.99489 8.59792 8.12713 8.36254 8.36251C8.12716 8.59789 7.99492 8.91713 7.99492 9.25001C7.99492 9.58288 8.12716 9.90213 8.36254 10.1375L11.2375 13L8.36254 15.8625C8.24538 15.9787 8.15238 16.117 8.08892 16.2693C8.02546 16.4216 7.99279 16.585 7.99279 16.75C7.99279 16.915 8.02546 17.0784 8.08892 17.2307C8.15238 17.3831 8.24538 17.5213 8.36254 17.6375C8.47874 17.7547 8.61699 17.8477 8.76932 17.9111C8.92164 17.9746 9.08502 18.0073 9.25004 18.0073C9.41505 18.0073 9.57843 17.9746 9.73076 17.9111C9.88308 17.8477 10.0213 17.7547 10.1375 17.6375L13 14.7625L15.8625 17.6375C15.9787 17.7547 16.117 17.8477 16.2693 17.9111C16.4216 17.9746 16.585 18.0073 16.75 18.0073C16.9151 18.0073 17.0784 17.9746 17.2308 17.9111C17.3831 17.8477 17.5213 17.7547 17.6375 17.6375C17.7547 17.5213 17.8477 17.3831 17.9111 17.2307C17.9746 17.0784 18.0073 16.915 18.0073 16.75C18.0073 16.585 17.9746 16.4216 17.9111 16.2693C17.8477 16.117 17.7547 15.9787 17.6375 15.8625L14.7625 13L17.6375 10.1375C17.7547 10.0213 17.8477 9.88305 17.9111 9.73073C17.9746 9.5784 18.0073 9.41502 18.0073 9.25001C18.0073 9.08499 17.9746 8.92161 17.9111 8.76929C17.8477 8.61696 17.7547 8.47871 17.6375 8.36251ZM21.8375 4.16251C20.6845 2.96863 19.3051 2.01635 17.7801 1.36124C16.255 0.706128 14.6148 0.3613 12.9551 0.346877C11.2953 0.332454 9.64932 0.648726 8.11311 1.27724C6.57691 1.90575 5.18126 2.83391 4.0076 4.00757C2.83394 5.18123 1.90578 6.57688 1.27727 8.11308C0.648756 9.64929 0.332485 11.2953 0.346908 12.955C0.36133 14.6148 0.706158 16.255 1.36127 17.7801C2.01638 19.3051 2.96866 20.6844 4.16254 21.8375C5.31562 23.0314 6.69493 23.9837 8.21998 24.6388C9.74503 25.2939 11.3853 25.6387 13.045 25.6531C14.7048 25.6676 16.3508 25.3513 17.887 24.7228C19.4232 24.0943 20.8188 23.1661 21.9925 21.9924C23.1661 20.8188 24.0943 19.4231 24.7228 17.8869C25.3513 16.3507 25.6676 14.7047 25.6532 13.045C25.6387 11.3853 25.2939 9.745 24.6388 8.21995C23.9837 6.6949 23.0314 5.31559 21.8375 4.16251ZM20.075 20.075C18.4401 21.7118 16.2882 22.731 13.986 22.9591C11.6838 23.1872 9.37379 22.6101 7.44944 21.326C5.52509 20.0419 4.10549 18.1303 3.4325 15.9169C2.75952 13.7035 2.87479 11.3252 3.75868 9.18724C4.64257 7.04929 6.24038 5.28394 8.2799 4.19196C10.3194 3.09998 12.6745 2.74892 14.9438 3.1986C17.2131 3.64828 19.2563 4.87087 20.7253 6.65808C22.1943 8.4453 22.9982 10.6866 23 13C23.0045 14.3141 22.7483 15.6161 22.2462 16.8305C21.7441 18.0449 21.0062 19.1477 20.075 20.075Z" fill="#EF5858"/>
</svg>
