<svg width="21" height="17" viewBox="0 0 21 17" fill="none" xmlns="http://www.w3.org/2000/svg">
<path d="M20.8332 8.08332C18.7291 3.19791 14.7707 0.166656 10.4999 0.166656C6.22905 0.166656 2.27072 3.19791 0.166553 8.08332C0.109196 8.21475 0.0795898 8.35659 0.0795898 8.49999C0.0795898 8.64338 0.109196 8.78523 0.166553 8.91665C2.27072 13.8021 6.22905 16.8333 10.4999 16.8333C14.7707 16.8333 18.7291 13.8021 20.8332 8.91665C20.8906 8.78523 20.9202 8.64338 20.9202 8.49999C20.9202 8.35659 20.8906 8.21475 20.8332 8.08332ZM10.4999 14.75C7.1978 14.75 4.0728 12.3646 2.27072 8.49999C4.0728 4.63541 7.1978 2.24999 10.4999 2.24999C13.802 2.24999 16.927 4.63541 18.7291 8.49999C16.927 12.3646 13.802 14.75 10.4999 14.75ZM10.4999 4.33332C9.6758 4.33332 8.87022 4.57769 8.18501 5.03553C7.49981 5.49337 6.96575 6.14412 6.65039 6.90547C6.33502 7.66683 6.25251 8.50461 6.41328 9.31286C6.57405 10.1211 6.97089 10.8635 7.55361 11.4463C8.13633 12.029 8.87876 12.4258 9.68701 12.5866C10.4953 12.7474 11.333 12.6649 12.0944 12.3495C12.8558 12.0341 13.5065 11.5001 13.9643 10.8149C14.4222 10.1297 14.6666 9.32408 14.6666 8.49999C14.6666 7.39492 14.2276 6.33511 13.4462 5.55371C12.6648 4.77231 11.605 4.33332 10.4999 4.33332ZM10.4999 10.5833C10.0878 10.5833 9.68505 10.4611 9.34245 10.2322C8.99985 10.0033 8.73282 9.67792 8.57514 9.29725C8.41745 8.91657 8.3762 8.49768 8.45658 8.09355C8.53697 7.68942 8.73539 7.31821 9.02675 7.02685C9.31811 6.73549 9.68932 6.53707 10.0934 6.45669C10.4976 6.3763 10.9165 6.41756 11.2971 6.57524C11.6778 6.73292 12.0032 6.99995 12.2321 7.34255C12.461 7.68515 12.5832 8.08794 12.5832 8.49999C12.5832 9.05252 12.3637 9.58243 11.973 9.97313C11.5823 10.3638 11.0524 10.5833 10.4999 10.5833Z" fill="#050522"/>
</svg>
